<svg width="30" height="32" viewBox="0 0 30 32" fill="none" xmlns="http://www.w3.org/2000/svg">
<g clip-path="url(#clip0_108_426)">
<path d="M18.5002 15.8584C22.7597 15.8584 26.2127 12.3084 26.2127 7.9292C26.2127 3.55002 22.7597 0 18.5002 0C14.2406 0 10.7876 3.55002 10.7876 7.9292C10.7876 12.3084 14.2406 15.8584 18.5002 15.8584Z" fill="#858585"/>
<path d="M27.6586 32H9.34125C7.964 32 6.8622 30.7256 6.99993 29.3097L8.03286 19.6106C8.17059 18.407 9.20352 17.4867 10.3742 17.4867H26.5568C27.7275 17.4867 28.7604 18.407 28.8981 19.6106L29.9311 29.3097C30.1377 30.7964 29.0359 32 27.6586 32Z" fill="#858585"/>
</g>
<line y1="11.9524" x2="9.14286" y2="11.9524" stroke="#858585" stroke-width="2"/>
<line x1="4.3335" y1="16.7618" x2="4.3335" y2="7.61898" stroke="#858585" stroke-width="2"/>
<defs>
<clipPath id="clip0_108_426">
<rect width="23" height="32" fill="white" transform="translate(7)"/>
</clipPath>
</defs>
</svg>
