<svg width="30" height="32" viewBox="0 0 30 32" fill="none" xmlns="http://www.w3.org/2000/svg">
<g clip-path="url(#clip0_117_427)">
<path d="M18.4999 15.8584C22.7595 15.8584 26.2125 12.3084 26.2125 7.9292C26.2125 3.55002 22.7595 0 18.4999 0C14.2404 0 10.7874 3.55002 10.7874 7.9292C10.7874 12.3084 14.2404 15.8584 18.4999 15.8584Z" fill="white"/>
<path d="M27.6586 32H9.34125C7.964 32 6.8622 30.7256 6.99993 29.3097L8.03286 19.6106C8.17059 18.407 9.20352 17.4867 10.3742 17.4867H26.5568C27.7275 17.4867 28.7604 18.407 28.8981 19.6106L29.9311 29.3097C30.1377 30.7964 29.0359 32 27.6586 32Z" fill="white"/>
</g>
<line y1="11.9524" x2="9.14286" y2="11.9524" stroke="#FFFF6D" stroke-width="2"/>
<line x1="4.33325" y1="16.7618" x2="4.33325" y2="7.61898" stroke="#FFFF6D" stroke-width="2"/>
<defs>
<clipPath id="clip0_117_427">
<rect width="23" height="32" fill="white" transform="translate(7)"/>
</clipPath>
</defs>
</svg>
