<svg width="60" height="80" viewBox="0 0 60 80" fill="none" xmlns="http://www.w3.org/2000/svg">
<g clip-path="url(#clip0_2_131)">
<path d="M29.6667 39.646C40.6551 39.646 49.5629 30.771 49.5629 19.823C49.5629 8.87506 40.6551 0 29.6667 0C18.6783 0 9.77051 8.87506 9.77051 19.823C9.77051 30.771 18.6783 39.646 29.6667 39.646Z" fill="black"/>
<path d="M53.2934 79.9999H6.03988C2.48698 79.9999 -0.355331 76.8141 -4.19915e-05 73.2743L2.66463 49.0265C3.01992 46.0176 5.68459 43.7167 8.70455 43.7167H50.451C53.471 43.7167 56.1357 46.0176 56.491 49.0265L59.1556 73.2743C59.6886 76.9911 56.8463 79.9999 53.2934 79.9999Z" fill="black"/>
<path d="M29.6665 66.5486L42.9898 43.7167H16.3431L29.6665 66.5486Z" fill="white"/>
<path d="M31.2653 49.7346H28.2454C27.3572 49.7346 26.8242 49.0266 26.8242 48.3186V45.3098C26.8242 44.4248 27.5348 43.8939 28.2454 43.8939H31.2653C32.1536 43.8939 32.6865 44.6018 32.6865 45.3098V48.3186C32.6865 49.2036 31.9759 49.7346 31.2653 49.7346Z" fill="black"/>
<path d="M29.8443 45.8406H29.489L25.5808 68.6725H29.6666H29.8443H33.7525L29.8443 45.8406Z" fill="black"/>
</g>
<defs>
<clipPath id="clip0_2_131">
<rect width="59.3333" height="80" fill="white"/>
</clipPath>
</defs>
</svg>
