<svg width="29" height="24" viewBox="0 0 29 24" fill="none" xmlns="http://www.w3.org/2000/svg">
<path d="M15.0609 22.5182V12.8765" stroke="white" stroke-width="2" stroke-miterlimit="10" stroke-linecap="round" stroke-linejoin="round"/>
<path d="M11.4435 16.3826L15.0609 12.8765L18.6783 16.3826" stroke="white" stroke-width="2" stroke-miterlimit="10" stroke-linecap="round" stroke-linejoin="round"/>
<path d="M18.226 19.8886H21.1652C25.1443 19.8886 27.7217 16.6017 27.7217 13.1833C27.7217 9.50186 24.6017 6.47786 20.713 6.47786C20.5773 6.47786 20.3965 6.47786 20.2608 6.52169C19.2208 3.58534 16.2817 1.48169 12.8452 1.48169C8.5043 1.48169 4.97735 4.8563 4.97735 9.01978C4.97735 9.41421 5.02256 9.76482 5.06778 10.1154C2.98778 10.7728 1.49561 12.6573 1.49561 14.8486C1.49561 17.6535 3.84691 19.8886 6.74082 19.8886H11.8956" stroke="white" stroke-width="2" stroke-miterlimit="10" stroke-linecap="round" stroke-linejoin="round"/>
</svg>
